<svg width="685" height="87" viewBox="0 0 685 87" fill="none" xmlns="http://www.w3.org/2000/svg">
<path d="M0 0.14209H53.6263V18.1144H18.3338V34.7387H53.6263V52.711H18.3338V86.8583H0V0.14209Z" fill="#DB3D3D"/>
<path d="M67.2268 0.14209H85.5605V68.886H119.02V0.14209H137.354V86.8583H67.2268V0.14209Z" fill="#F3B43B"/>
<path d="M150.954 0.14209H169.288V19.013H186.246V35.6373H169.288V86.8583H150.954V0.14209Z" fill="#45AA75"/>
<path d="M203.205 52.2617V35.6373H186.246V52.2617H203.205Z" fill="#45AA75"/>
<path d="M220.164 52.2617H203.205V68.886H220.164V86.8583H238.498V0.14209H220.164V52.2617Z" fill="#45AA75"/>
<path fill-rule="evenodd" clip-rule="evenodd" d="M252.098 0.14209H321.54V86.8583H252.098V69.5151H269.348V17.4853H252.098V0.14209ZM304.29 69.5151V52.1718H287.04V69.5151H304.29ZM304.29 34.8286V17.4853H287.04V34.8286H304.29Z" fill="#161616"/>
<path d="M335.14 0.14209H352.39V69.5151H387.332V86.8583H335.14V0.14209Z" fill="#161616"/>
<path fill-rule="evenodd" clip-rule="evenodd" d="M400.932 0.14209V86.8583H470.374V0.14209H400.932ZM453.124 69.5151H418.182V17.4853H453.124V69.5151Z" fill="#161616"/>
<path d="M483.974 0.14209H536.166V17.4853H501.224V69.5151H536.166V86.8583H483.974V0.14209Z" fill="#161616"/>
<path d="M601.958 0.14209H619.208V17.4853H601.958V0.14209Z" fill="#DB3D3D"/>
<path d="M549.766 0.14209H567.016V34.8286H584.708V52.1718H567.016V86.8583H549.766V0.14209Z" fill="#161616"/>
<path d="M601.958 69.5151V52.1718H584.708V69.5151H601.958Z" fill="#161616"/>
<path d="M601.958 69.5151V86.8583H619.208V69.5151H601.958Z" fill="#161616"/>
<path d="M584.708 34.8286V17.4853H601.958V34.8286H584.708Z" fill="#161616"/>
<path d="M632.808 0.14209H685V17.4853H650.058V34.8286H685V86.8583H632.808V69.5151H667.75V52.1718H632.808V0.14209Z" fill="#161616"/>
</svg>
