<svg width="393" height="10" viewBox="0 0 393 10" fill="none" xmlns="http://www.w3.org/2000/svg">
<path d="M0 0H2.46064V2.52205H0V0Z" fill="#7A5936"/>
<path d="M4.83336 0H7.20615V2.52205H4.83336V0Z" fill="#7A5936"/>
<path d="M9.57925 0H11.952V2.52205H9.57925V0Z" fill="#7A5936"/>
<path d="M14.3251 0H16.6979V2.52205H14.3251V0Z" fill="#7A5936"/>
<path d="M19.071 0H21.4437V2.52205H19.071V0Z" fill="#7A5936"/>
<path d="M23.8169 0H26.2775V2.52205H23.8169V0Z" fill="#7A5936"/>
<path d="M28.6503 0H31.023V2.52205H28.6503V0Z" fill="#7A5936"/>
<path d="M33.3962 0H35.7689V2.52205H33.3962V0Z" fill="#7A5936"/>
<path d="M38.1398 0H40.5125V2.52205H38.1398V0Z" fill="#7A5936"/>
<path d="M42.8856 0H45.2584V2.52205H42.8856V0Z" fill="#7A5936"/>
<path d="M47.6315 0H50.0922V2.52205H47.6315V0Z" fill="#7A5936"/>
<path d="M52.4649 0H54.8377V2.52205H52.4649V0Z" fill="#7A5936"/>
<path d="M57.2108 0H59.5836V2.52205H57.2108V0Z" fill="#7A5936"/>
<path d="M61.9544 0H64.3272V2.52205H61.9544V0Z" fill="#7A5936"/>
<path d="M66.7003 0H69.0731V2.52205H66.7003V0Z" fill="#7A5936"/>
<path d="M71.4462 0H73.9068V2.52205H71.4462V0Z" fill="#7A5936"/>
<path d="M76.2796 0H78.6524V2.52205H76.2796V0Z" fill="#7A5936"/>
<path d="M81.0255 0H83.3982V2.52205H81.0255V0Z" fill="#7A5936"/>
<path d="M85.769 0H88.1419V2.52205H85.769V0Z" fill="#7A5936"/>
<path d="M90.515 0H92.8877V2.52205H90.515V0Z" fill="#7A5936"/>
<path d="M95.2608 0H97.7214V2.52205H95.2608V0Z" fill="#7A5936"/>
<path d="M100.094 0H102.467V2.52205H100.094V0Z" fill="#7A5936"/>
<path d="M104.84 0H107.213V2.52205H104.84V0Z" fill="#7A5936"/>
<path d="M109.586 0H111.959V2.52205H109.586V0Z" fill="#7A5936"/>
<path d="M114.332 0H116.705V2.52205H114.332V0Z" fill="#7A5936"/>
<path d="M119.078 0H121.538V2.52205H119.078V0Z" fill="#7A5936"/>
<path d="M123.911 0H126.284V2.52205H123.911V0Z" fill="#7A5936"/>
<path d="M128.657 0H131.03V2.52205H128.657V0Z" fill="#7A5936"/>
<path d="M133.401 0H135.773V2.52205H133.401V0Z" fill="#7A5936"/>
<path d="M138.146 0H140.519V2.52205H138.146V0Z" fill="#7A5936"/>
<path d="M142.892 0H145.353V2.52205H142.892V0Z" fill="#7A5936"/>
<path d="M147.726 0H150.099V2.52205H147.726V0Z" fill="#7A5936"/>
<path d="M152.472 0H154.844V2.52205H152.472V0Z" fill="#7A5936"/>
<path d="M157.218 0H159.59V2.52205H157.218V0Z" fill="#7A5936"/>
<path d="M161.963 0H164.336V2.52205H161.963V0Z" fill="#7A5936"/>
<path d="M166.709 0H169.17V2.52205H166.709V0Z" fill="#7A5936"/>
<path d="M171.543 0H173.915V2.52205H171.543V0Z" fill="#7A5936"/>
<path d="M176.289 0H178.661V2.52205H176.289V0Z" fill="#7A5936"/>
<path d="M181.032 0H183.405V2.52205H181.032V0Z" fill="#7A5936"/>
<path d="M185.778 0H188.151V2.52205H185.778V0Z" fill="#7A5936"/>
<path d="M190.524 0H192.985V2.52205H190.524V0Z" fill="#7A5936"/>
<path d="M195.357 0H197.73V2.52205H195.357V0Z" fill="#7A5936"/>
<path d="M200.103 0H202.476V2.52205H200.103V0Z" fill="#7A5936"/>
<path d="M204.849 0H207.222V2.52205H204.849V0Z" fill="#7A5936"/>
<path d="M209.595 0H211.968V2.52205H209.595V0Z" fill="#7A5936"/>
<path d="M214.341 0H216.802V2.52205H214.341V0Z" fill="#7A5936"/>
<path d="M219.174 0H221.547V2.52205H219.174V0Z" fill="#7A5936"/>
<path d="M223.92 0H226.293V2.52205H223.92V0Z" fill="#7A5936"/>
<path d="M228.664 0H231.036V2.52205H228.664V0Z" fill="#7A5936"/>
<path d="M233.41 0H235.782V2.52205H233.41V0Z" fill="#7A5936"/>
<path d="M238.155 0H240.616V2.52205H238.155V0Z" fill="#7A5936"/>
<path d="M242.989 0H245.362V2.52205H242.989V0Z" fill="#7A5936"/>
<path d="M247.735 0H250.108V2.52205H247.735V0Z" fill="#7A5936"/>
<path d="M252.481 0H254.853V2.52205H252.481V0Z" fill="#7A5936"/>
<path d="M257.227 0H259.599V2.52205H257.227V0Z" fill="#7A5936"/>
<path d="M261.972 0H264.433V2.52205H261.972V0Z" fill="#7A5936"/>
<path d="M266.806 0H269.179V2.52205H266.806V0Z" fill="#7A5936"/>
<path d="M271.552 0H273.924V2.52205H271.552V0Z" fill="#7A5936"/>
<path d="M276.295 0H278.668V2.52205H276.295V0Z" fill="#7A5936"/>
<path d="M281.041 0H283.414V2.52205H281.041V0Z" fill="#7A5936"/>
<path d="M285.787 0H288.248V2.52205H285.787V0Z" fill="#7A5936"/>
<path d="M290.62 0H292.993V2.52205H290.62V0Z" fill="#7A5936"/>
<path d="M295.366 0H297.739V2.52205H295.366V0Z" fill="#7A5936"/>
<path d="M300.11 0H302.483V2.52205H300.11V0Z" fill="#7A5936"/>
<path d="M304.856 0H307.229V2.52205H304.856V0Z" fill="#7A5936"/>
<path d="M309.602 0H312.062V2.52205H309.602V0Z" fill="#7A5936"/>
<path d="M314.435 0H316.808V2.52205H314.435V0Z" fill="#7A5936"/>
<path d="M319.181 0H321.554V2.52205H319.181V0Z" fill="#7A5936"/>
<path d="M323.925 0H326.297V2.52205H323.925V0Z" fill="#7A5936"/>
<path d="M328.67 0H331.043V2.52205H328.67V0Z" fill="#7A5936"/>
<path d="M333.416 0H335.877V2.52205H333.416V0Z" fill="#7A5936"/>
<path d="M338.25 0H340.623V2.52205H338.25V0Z" fill="#7A5936"/>
<path d="M342.996 0H345.368V2.52205H342.996V0Z" fill="#7A5936"/>
<path d="M347.742 0H350.114V2.52205H347.742V0Z" fill="#7A5936"/>
<path d="M352.487 0H354.86V2.52205H352.487V0Z" fill="#7A5936"/>
<path d="M357.233 0H359.694V2.52205H357.233V0Z" fill="#7A5936"/>
<path d="M362.067 0H364.439V2.52205H362.067V0Z" fill="#7A5936"/>
<path d="M366.813 0H369.185V2.52205H366.813V0Z" fill="#7A5936"/>
<path d="M371.556 0H373.929V2.52205H371.556V0Z" fill="#7A5936"/>
<path d="M376.302 0H378.675V2.52205H376.302V0Z" fill="#7A5936"/>
<path d="M381.048 0H383.509V2.52205H381.048V0Z" fill="#7A5936"/>
<path d="M385.881 0H388.254V2.52205H385.881V0Z" fill="#7A5936"/>
<path d="M390.627 0H393V2.52205H390.627V0Z" fill="#7A5936"/>
<path d="M2.45923 2.52224H4.83202V5.04428H2.45923V2.52224Z" fill="#7A5936"/>
<path d="M7.20615 2.52205L9.5779 2.52224V5.04428H7.20511L7.20615 2.52205Z" fill="#7A5936"/>
<path d="M11.952 2.52205L14.3238 2.52224V5.04428H11.9511L11.952 2.52205Z" fill="#7A5936"/>
<path d="M16.6979 2.52205L19.0697 2.52224V5.04428H16.6969L16.6979 2.52205Z" fill="#7A5936"/>
<path d="M21.4437 2.52205L23.9035 2.52224V5.04428H21.4428L21.4437 2.52205Z" fill="#7A5936"/>
<path d="M26.2762 2.52224H28.649V5.04428H26.2762V2.52224Z" fill="#7A5936"/>
<path d="M31.023 2.52205L33.3949 2.52224V5.04428H31.0221L31.023 2.52205Z" fill="#7A5936"/>
<path d="M35.7657 2.52224H38.1384V5.04428H35.7657V2.52224Z" fill="#7A5936"/>
<path d="M40.5125 2.52205L42.8843 2.52224V5.04428H40.5116L40.5125 2.52205Z" fill="#7A5936"/>
<path d="M45.2584 2.52205L47.7181 2.52224V5.04428H45.2575L45.2584 2.52205Z" fill="#7A5936"/>
<path d="M50.0908 2.52224H52.4636V5.04428H50.0908V2.52224Z" fill="#7A5936"/>
<path d="M54.8377 2.52205L57.2095 2.52224V5.04428H54.8367L54.8377 2.52205Z" fill="#7A5936"/>
<path d="M59.5836 2.52205H61.9544L61.9554 5.04428H59.5826L59.5836 2.52205Z" fill="#7A5936"/>
<path d="M64.3285 2.52224L66.7003 2.52205L66.7012 5.04428H64.3285V2.52224Z" fill="#7A5936"/>
<path d="M69.0743 2.52224H71.535V5.04428H69.0743V2.52224Z" fill="#7A5936"/>
<path d="M73.9068 2.52205H76.2796L76.2806 5.04428H73.9078L73.9068 2.52205Z" fill="#7A5936"/>
<path d="M78.6536 2.52224L81.0255 2.52205L81.0264 5.04428H78.6536V2.52224Z" fill="#7A5936"/>
<path d="M83.3982 2.52205H85.769L85.7701 5.04428H83.3973L83.3982 2.52205Z" fill="#7A5936"/>
<path d="M88.1432 2.52224L90.515 2.52205L90.5159 5.04428H88.1432V2.52224Z" fill="#7A5936"/>
<path d="M92.889 2.52224H95.3496V5.04428H92.889V2.52224Z" fill="#7A5936"/>
<path d="M97.7214 2.52205H100.094L100.095 5.04428H97.7224L97.7214 2.52205Z" fill="#7A5936"/>
<path d="M102.468 2.52224L104.84 2.52205L104.841 5.04428H102.468V2.52224Z" fill="#7A5936"/>
<path d="M107.214 2.52224L109.586 2.52205L109.587 5.04428H107.214V2.52224Z" fill="#7A5936"/>
<path d="M111.96 2.52224L114.332 2.52205L114.333 5.04428H111.96V2.52224Z" fill="#7A5936"/>
<path d="M116.706 2.52224H119.167V5.04428H116.706V2.52224Z" fill="#7A5936"/>
<path d="M121.538 2.52205H123.911L123.912 5.04428H121.539L121.538 2.52205Z" fill="#7A5936"/>
<path d="M126.284 2.52205L128.656 2.52224V5.04428H126.283L126.284 2.52205Z" fill="#7A5936"/>
<path d="M131.03 2.52205H133.401L133.402 5.04428H131.029L131.03 2.52205Z" fill="#7A5936"/>
<path d="M135.775 2.52224L138.146 2.52205L138.148 5.04428H135.775V2.52224Z" fill="#7A5936"/>
<path d="M140.521 2.52224H142.981V5.04428H140.521V2.52224Z" fill="#7A5936"/>
<path d="M145.353 2.52205H147.726L147.727 5.04428H145.354L145.353 2.52205Z" fill="#7A5936"/>
<path d="M150.1 2.52224L152.472 2.52205L152.473 5.04428H150.1V2.52224Z" fill="#7A5936"/>
<path d="M154.846 2.52224L157.218 2.52205L157.219 5.04428H154.846V2.52224Z" fill="#7A5936"/>
<path d="M159.592 2.52224L161.963 2.52205L161.964 5.04428H159.592V2.52224Z" fill="#7A5936"/>
<path d="M164.338 2.52224H166.798V5.04428H164.338V2.52224Z" fill="#7A5936"/>
<path d="M169.17 2.52205H171.543L171.544 5.04428H169.171L169.17 2.52205Z" fill="#7A5936"/>
<path d="M173.917 2.52224L176.289 2.52205L176.29 5.04428H173.917V2.52224Z" fill="#7A5936"/>
<path d="M178.661 2.52205H181.032L181.033 5.04428H178.66L178.661 2.52205Z" fill="#7A5936"/>
<path d="M183.406 2.52224L185.778 2.52205L185.779 5.04428H183.406V2.52224Z" fill="#7A5936"/>
<path d="M188.152 2.52224H190.613V5.04428H188.152V2.52224Z" fill="#7A5936"/>
<path d="M192.985 2.52205H195.357L195.358 5.04428H192.986L192.985 2.52205Z" fill="#7A5936"/>
<path d="M197.731 2.52224L200.103 2.52205L200.104 5.04428H197.731V2.52224Z" fill="#7A5936"/>
<path d="M202.477 2.52224L204.849 2.52205L204.85 5.04428H202.477V2.52224Z" fill="#7A5936"/>
<path d="M207.223 2.52224L209.595 2.52205L209.596 5.04428H207.223V2.52224Z" fill="#7A5936"/>
<path d="M211.969 2.52224H214.43V5.04428H211.969V2.52224Z" fill="#7A5936"/>
<path d="M216.802 2.52205H219.174L219.175 5.04428H216.802L216.802 2.52205Z" fill="#7A5936"/>
<path d="M221.548 2.52224L223.92 2.52205L223.921 5.04428H221.548V2.52224Z" fill="#7A5936"/>
<path d="M226.293 2.52205H228.664L228.665 5.04428H226.292L226.293 2.52205Z" fill="#7A5936"/>
<path d="M231.038 2.52224L233.41 2.52205L233.411 5.04428H231.038V2.52224Z" fill="#7A5936"/>
<path d="M235.784 2.52224H238.244V5.04428H235.784V2.52224Z" fill="#7A5936"/>
<path d="M240.616 2.52205H242.989L242.99 5.04428H240.617L240.616 2.52205Z" fill="#7A5936"/>
<path d="M245.363 2.52224L247.735 2.52205L247.736 5.04428H245.363V2.52224Z" fill="#7A5936"/>
<path d="M250.109 2.52224L252.481 2.52205L252.482 5.04428H250.109V2.52224Z" fill="#7A5936"/>
<path d="M254.855 2.52224L257.227 2.52205L257.228 5.04428H254.855V2.52224Z" fill="#7A5936"/>
<path d="M259.601 2.52224H262.061V5.04428H259.601V2.52224Z" fill="#7A5936"/>
<path d="M264.433 2.52205H266.806L266.807 5.04428H264.434L264.433 2.52205Z" fill="#7A5936"/>
<path d="M269.18 2.52224L271.552 2.52205L271.553 5.04428H269.18V2.52224Z" fill="#7A5936"/>
<path d="M273.924 2.52205H276.295L276.296 5.04428H273.923L273.924 2.52205Z" fill="#7A5936"/>
<path d="M278.669 2.52224L281.041 2.52205L281.042 5.04428H278.669V2.52224Z" fill="#7A5936"/>
<path d="M283.415 2.52224H285.876V5.04428H283.415V2.52224Z" fill="#7A5936"/>
<path d="M288.248 2.52205H290.62L290.622 5.04428H288.249L288.248 2.52205Z" fill="#7A5936"/>
<path d="M292.995 2.52224L295.366 2.52205L295.367 5.04428H292.995V2.52224Z" fill="#7A5936"/>
<path d="M297.739 2.52205H300.11L300.111 5.04428H297.738L297.739 2.52205Z" fill="#7A5936"/>
<path d="M302.484 2.52224L304.856 2.52205L304.857 5.04428H302.484V2.52224Z" fill="#7A5936"/>
<path d="M307.23 2.52224H309.691V5.04428H307.23V2.52224Z" fill="#7A5936"/>
<path d="M312.062 2.52205H314.435L314.436 5.04428H312.063L312.062 2.52205Z" fill="#7A5936"/>
<path d="M316.809 2.52224L319.181 2.52205L319.182 5.04428H316.809V2.52224Z" fill="#7A5936"/>
<path d="M321.554 2.52205H323.925L323.926 5.04428H321.553L321.554 2.52205Z" fill="#7A5936"/>
<path d="M326.299 2.52224L328.67 2.52205L328.671 5.04428H326.299V2.52224Z" fill="#7A5936"/>
<path d="M331.045 2.52224H333.505V5.04428H331.045V2.52224Z" fill="#7A5936"/>
<path d="M335.877 2.52205H338.25L338.251 5.04428H335.878L335.877 2.52205Z" fill="#7A5936"/>
<path d="M340.624 2.52224L342.996 2.52205L342.997 5.04428H340.624V2.52224Z" fill="#7A5936"/>
<path d="M345.37 2.52224L347.742 2.52205L347.743 5.04428H345.37V2.52224Z" fill="#7A5936"/>
<path d="M350.116 2.52224L352.487 2.52205L352.488 5.04428H350.116V2.52224Z" fill="#7A5936"/>
<path d="M354.862 2.52224H357.322V5.04428H354.862V2.52224Z" fill="#7A5936"/>
<path d="M359.694 2.52205H362.067L362.068 5.04428H359.695L359.694 2.52205Z" fill="#7A5936"/>
<path d="M364.441 2.52224L366.813 2.52205L366.814 5.04428H364.441V2.52224Z" fill="#7A5936"/>
<path d="M369.185 2.52205H371.556L371.557 5.04428H369.184L369.185 2.52205Z" fill="#7A5936"/>
<path d="M373.93 2.52224L376.302 2.52205L376.303 5.04428H373.93V2.52224Z" fill="#7A5936"/>
<path d="M378.676 2.52224H381.137V5.04428H378.676V2.52224Z" fill="#7A5936"/>
<path d="M383.509 2.52205H385.881L385.882 5.04428H383.51L383.509 2.52205Z" fill="#7A5936"/>
<path d="M388.255 2.52224L390.627 2.52205L390.628 5.04428H388.255V2.52224Z" fill="#7A5936"/>
<path d="M0 4.98083H2.46064V7.50288H0V4.98083Z" fill="#7A5936"/>
<path d="M4.83336 4.98083H7.20615V7.50288H4.83336V4.98083Z" fill="#7A5936"/>
<path d="M9.57925 4.98083H11.952V7.50288H9.57925V4.98083Z" fill="#7A5936"/>
<path d="M14.3251 4.98083H16.6979V7.50288H14.3251V4.98083Z" fill="#7A5936"/>
<path d="M19.071 4.98083H21.4437V7.50288H19.071V4.98083Z" fill="#7A5936"/>
<path d="M23.8169 4.98083H26.2775V7.50288H23.8169V4.98083Z" fill="#7A5936"/>
<path d="M28.6503 4.98083H31.023V7.50288H28.6503V4.98083Z" fill="#7A5936"/>
<path d="M33.3962 4.98083H35.7689V7.50288H33.3962V4.98083Z" fill="#7A5936"/>
<path d="M38.1398 4.98083H40.5125V7.50288H38.1398V4.98083Z" fill="#7A5936"/>
<path d="M42.8856 4.98083H45.2584V7.50288H42.8856V4.98083Z" fill="#7A5936"/>
<path d="M47.6315 4.98083H50.0922V7.50288H47.6315V4.98083Z" fill="#7A5936"/>
<path d="M52.4649 4.98083H54.8377V7.50288H52.4649V4.98083Z" fill="#7A5936"/>
<path d="M57.2108 4.98083H59.5836V7.50288H57.2108V4.98083Z" fill="#7A5936"/>
<path d="M61.9544 4.98083H64.3272V7.50288H61.9544V4.98083Z" fill="#7A5936"/>
<path d="M66.7003 4.98083H69.0731V7.50288H66.7003V4.98083Z" fill="#7A5936"/>
<path d="M71.4462 4.98083H73.9068V7.50288H71.4462V4.98083Z" fill="#7A5936"/>
<path d="M76.2796 4.98083H78.6524V7.50288H76.2796V4.98083Z" fill="#7A5936"/>
<path d="M81.0255 4.98083H83.3982V7.50288H81.0255V4.98083Z" fill="#7A5936"/>
<path d="M85.769 4.98083H88.1419V7.50288H85.769V4.98083Z" fill="#7A5936"/>
<path d="M90.515 4.98083H92.8877V7.50288H90.515V4.98083Z" fill="#7A5936"/>
<path d="M95.2608 4.98083H97.7214V7.50288H95.2608V4.98083Z" fill="#7A5936"/>
<path d="M100.094 4.98083H102.467V7.50288H100.094V4.98083Z" fill="#7A5936"/>
<path d="M104.84 4.98083H107.213V7.50288H104.84V4.98083Z" fill="#7A5936"/>
<path d="M109.586 4.98083H111.959V7.50288H109.586V4.98083Z" fill="#7A5936"/>
<path d="M114.332 4.98083H116.705V7.50288H114.332V4.98083Z" fill="#7A5936"/>
<path d="M119.078 4.98083H121.538V7.50288H119.078V4.98083Z" fill="#7A5936"/>
<path d="M123.911 4.98083H126.284V7.50288H123.911V4.98083Z" fill="#7A5936"/>
<path d="M128.657 4.98083H131.03V7.50288H128.657V4.98083Z" fill="#7A5936"/>
<path d="M133.401 4.98083H135.773V7.50288H133.401V4.98083Z" fill="#7A5936"/>
<path d="M138.146 4.98083H140.519V7.50288H138.146V4.98083Z" fill="#7A5936"/>
<path d="M142.892 4.98083H145.353V7.50288H142.892V4.98083Z" fill="#7A5936"/>
<path d="M147.726 4.98083H150.099V7.50288H147.726V4.98083Z" fill="#7A5936"/>
<path d="M152.472 4.98083H154.844V7.50288H152.472V4.98083Z" fill="#7A5936"/>
<path d="M157.218 4.98083H159.59V7.50288H157.218V4.98083Z" fill="#7A5936"/>
<path d="M161.963 4.98083H164.336V7.50288H161.963V4.98083Z" fill="#7A5936"/>
<path d="M166.709 4.98083H169.17V7.50288H166.709V4.98083Z" fill="#7A5936"/>
<path d="M171.543 4.98083H173.915V7.50288H171.543V4.98083Z" fill="#7A5936"/>
<path d="M176.289 4.98083H178.661V7.50288H176.289V4.98083Z" fill="#7A5936"/>
<path d="M181.032 4.98083H183.405V7.50288H181.032V4.98083Z" fill="#7A5936"/>
<path d="M185.778 4.98083H188.151V7.50288H185.778V4.98083Z" fill="#7A5936"/>
<path d="M190.524 4.98083H192.985V7.50288H190.524V4.98083Z" fill="#7A5936"/>
<path d="M195.357 4.98083H197.73V7.50288H195.357V4.98083Z" fill="#7A5936"/>
<path d="M200.103 4.98083H202.476V7.50288H200.103V4.98083Z" fill="#7A5936"/>
<path d="M204.849 4.98083H207.222V7.50288H204.849V4.98083Z" fill="#7A5936"/>
<path d="M209.595 4.98083H211.968V7.50288H209.595V4.98083Z" fill="#7A5936"/>
<path d="M214.341 4.98083H216.802V7.50288H214.341V4.98083Z" fill="#7A5936"/>
<path d="M219.174 4.98083H221.547V7.50288H219.174V4.98083Z" fill="#7A5936"/>
<path d="M223.92 4.98083H226.293V7.50288H223.92V4.98083Z" fill="#7A5936"/>
<path d="M228.664 4.98083H231.036V7.50288H228.664V4.98083Z" fill="#7A5936"/>
<path d="M233.41 4.98083H235.782V7.50288H233.41V4.98083Z" fill="#7A5936"/>
<path d="M238.155 4.98083H240.616V7.50288H238.155V4.98083Z" fill="#7A5936"/>
<path d="M242.989 4.98083H245.362V7.50288H242.989V4.98083Z" fill="#7A5936"/>
<path d="M247.735 4.98083H250.108V7.50288H247.735V4.98083Z" fill="#7A5936"/>
<path d="M252.481 4.98083H254.853V7.50288H252.481V4.98083Z" fill="#7A5936"/>
<path d="M257.227 4.98083H259.599V7.50288H257.227V4.98083Z" fill="#7A5936"/>
<path d="M261.972 4.98083H264.433V7.50288H261.972V4.98083Z" fill="#7A5936"/>
<path d="M266.806 4.98083H269.179V7.50288H266.806V4.98083Z" fill="#7A5936"/>
<path d="M271.552 4.98083H273.924V7.50288H271.552V4.98083Z" fill="#7A5936"/>
<path d="M276.295 4.98083H278.668V7.50288H276.295V4.98083Z" fill="#7A5936"/>
<path d="M281.041 4.98083H283.414V7.50288H281.041V4.98083Z" fill="#7A5936"/>
<path d="M285.787 4.98083H288.248V7.50288H285.787V4.98083Z" fill="#7A5936"/>
<path d="M290.62 4.98083H292.993V7.50288H290.62V4.98083Z" fill="#7A5936"/>
<path d="M295.366 4.98083H297.739V7.50288H295.366V4.98083Z" fill="#7A5936"/>
<path d="M300.11 4.98083H302.483V7.50288H300.11V4.98083Z" fill="#7A5936"/>
<path d="M304.856 4.98083H307.229V7.50288H304.856V4.98083Z" fill="#7A5936"/>
<path d="M309.602 4.98083H312.062V7.50288H309.602V4.98083Z" fill="#7A5936"/>
<path d="M314.435 4.98083H316.808V7.50288H314.435V4.98083Z" fill="#7A5936"/>
<path d="M319.181 4.98083H321.554V7.50288H319.181V4.98083Z" fill="#7A5936"/>
<path d="M323.925 4.98083H326.297V7.50288H323.925V4.98083Z" fill="#7A5936"/>
<path d="M328.67 4.98083H331.043V7.50288H328.67V4.98083Z" fill="#7A5936"/>
<path d="M333.416 4.98083H335.877V7.50288H333.416V4.98083Z" fill="#7A5936"/>
<path d="M338.25 4.98083H340.623V7.50288H338.25V4.98083Z" fill="#7A5936"/>
<path d="M342.996 4.98083H345.368V7.50288H342.996V4.98083Z" fill="#7A5936"/>
<path d="M347.742 4.98083H350.114V7.50288H347.742V4.98083Z" fill="#7A5936"/>
<path d="M352.487 4.98083H354.86V7.50288H352.487V4.98083Z" fill="#7A5936"/>
<path d="M357.233 4.98083H359.694V7.50288H357.233V4.98083Z" fill="#7A5936"/>
<path d="M362.067 4.98083H364.439V7.50288H362.067V4.98083Z" fill="#7A5936"/>
<path d="M366.813 4.98083H369.185V7.50288H366.813V4.98083Z" fill="#7A5936"/>
<path d="M371.556 4.98083H373.929V7.50288H371.556V4.98083Z" fill="#7A5936"/>
<path d="M376.302 4.98083H378.675V7.50288H376.302V4.98083Z" fill="#7A5936"/>
<path d="M381.048 4.98083H383.509V7.50288H381.048V4.98083Z" fill="#7A5936"/>
<path d="M385.881 4.98083H388.254V7.50288H385.881V4.98083Z" fill="#7A5936"/>
<path d="M390.627 4.98083H393V7.50288H390.627V4.98083Z" fill="#7A5936"/>
<path d="M0 7.48716H2.46064V10.0092H0V7.48716Z" fill="#7A5936"/>
<path d="M4.83336 7.48716H7.20615V10.0092H4.83336V7.48716Z" fill="#7A5936"/>
<path d="M9.57925 7.48716H11.952V10.0092H9.57925V7.48716Z" fill="#7A5936"/>
<path d="M14.3251 7.48716H16.6979V10.0092H14.3251V7.48716Z" fill="#7A5936"/>
<path d="M19.071 7.48716H21.4437V10.0092H19.071V7.48716Z" fill="#7A5936"/>
<path d="M23.8169 7.48716H26.2775V10.0092H23.8169V7.48716Z" fill="#7A5936"/>
<path d="M28.6503 7.48716H31.023V10.0092H28.6503V7.48716Z" fill="#7A5936"/>
<path d="M33.3962 7.48716H35.7689V10.0092H33.3962V7.48716Z" fill="#7A5936"/>
<path d="M38.1398 7.48716H40.5125V10.0092H38.1398V7.48716Z" fill="#7A5936"/>
<path d="M42.8856 7.48716H45.2584V10.0092H42.8856V7.48716Z" fill="#7A5936"/>
<path d="M47.6315 7.48716H50.0922V10.0092H47.6315V7.48716Z" fill="#7A5936"/>
<path d="M52.4649 7.48716H54.8377V10.0092H52.4649V7.48716Z" fill="#7A5936"/>
<path d="M57.2108 7.48716H59.5836V10.0092H57.2108V7.48716Z" fill="#7A5936"/>
<path d="M61.9544 7.48716H64.3272V10.0092H61.9544V7.48716Z" fill="#7A5936"/>
<path d="M66.7003 7.48716H69.0731V10.0092H66.7003V7.48716Z" fill="#7A5936"/>
<path d="M71.4462 7.48716H73.9068V10.0092H71.4462V7.48716Z" fill="#7A5936"/>
<path d="M76.2796 7.48716H78.6524V10.0092H76.2796V7.48716Z" fill="#7A5936"/>
<path d="M81.0255 7.48716H83.3982V10.0092H81.0255V7.48716Z" fill="#7A5936"/>
<path d="M85.769 7.48716H88.1419V10.0092H85.769V7.48716Z" fill="#7A5936"/>
<path d="M90.515 7.48716H92.8877V10.0092H90.515V7.48716Z" fill="#7A5936"/>
<path d="M95.2608 7.48716H97.7214V10.0092H95.2608V7.48716Z" fill="#7A5936"/>
<path d="M100.094 7.48716H102.467V10.0092H100.094V7.48716Z" fill="#7A5936"/>
<path d="M104.84 7.48716H107.213V10.0092H104.84V7.48716Z" fill="#7A5936"/>
<path d="M109.586 7.48716H111.959V10.0092H109.586V7.48716Z" fill="#7A5936"/>
<path d="M114.332 7.48716H116.705V10.0092H114.332V7.48716Z" fill="#7A5936"/>
<path d="M119.078 7.48716H121.538V10.0092H119.078V7.48716Z" fill="#7A5936"/>
<path d="M123.911 7.48716H126.284V10.0092H123.911V7.48716Z" fill="#7A5936"/>
<path d="M128.657 7.48716H131.03V10.0092H128.657V7.48716Z" fill="#7A5936"/>
<path d="M133.401 7.48716H135.773V10.0092H133.401V7.48716Z" fill="#7A5936"/>
<path d="M138.146 7.48716H140.519V10.0092H138.146V7.48716Z" fill="#7A5936"/>
<path d="M142.892 7.48716H145.353V10.0092H142.892V7.48716Z" fill="#7A5936"/>
<path d="M147.726 7.48716H150.099V10.0092H147.726V7.48716Z" fill="#7A5936"/>
<path d="M152.472 7.48716H154.844V10.0092H152.472V7.48716Z" fill="#7A5936"/>
<path d="M157.218 7.48716H159.59V10.0092H157.218V7.48716Z" fill="#7A5936"/>
<path d="M161.963 7.48716H164.336V10.0092H161.963V7.48716Z" fill="#7A5936"/>
<path d="M166.709 7.48716H169.17V10.0092H166.709V7.48716Z" fill="#7A5936"/>
<path d="M171.543 7.48716H173.915V10.0092H171.543V7.48716Z" fill="#7A5936"/>
<path d="M176.289 7.48716H178.661V10.0092H176.289V7.48716Z" fill="#7A5936"/>
<path d="M181.032 7.48716H183.405V10.0092H181.032V7.48716Z" fill="#7A5936"/>
<path d="M185.778 7.48716H188.151V10.0092H185.778V7.48716Z" fill="#7A5936"/>
<path d="M190.524 7.48716H192.985V10.0092H190.524V7.48716Z" fill="#7A5936"/>
<path d="M195.357 7.48716H197.73V10.0092H195.357V7.48716Z" fill="#7A5936"/>
<path d="M200.103 7.48716H202.476V10.0092H200.103V7.48716Z" fill="#7A5936"/>
<path d="M204.849 7.48716H207.222V10.0092H204.849V7.48716Z" fill="#7A5936"/>
<path d="M209.595 7.48716H211.968V10.0092H209.595V7.48716Z" fill="#7A5936"/>
<path d="M214.341 7.48716H216.802V10.0092H214.341V7.48716Z" fill="#7A5936"/>
<path d="M219.174 7.48716H221.547V10.0092H219.174V7.48716Z" fill="#7A5936"/>
<path d="M223.92 7.48716H226.293V10.0092H223.92V7.48716Z" fill="#7A5936"/>
<path d="M228.664 7.48716H231.036V10.0092H228.664V7.48716Z" fill="#7A5936"/>
<path d="M233.41 7.48716H235.782V10.0092H233.41V7.48716Z" fill="#7A5936"/>
<path d="M238.155 7.48716H240.616V10.0092H238.155V7.48716Z" fill="#7A5936"/>
<path d="M242.989 7.48716H245.362V10.0092H242.989V7.48716Z" fill="#7A5936"/>
<path d="M247.735 7.48716H250.108V10.0092H247.735V7.48716Z" fill="#7A5936"/>
<path d="M252.481 7.48716H254.853V10.0092H252.481V7.48716Z" fill="#7A5936"/>
<path d="M257.227 7.48716H259.599V10.0092H257.227V7.48716Z" fill="#7A5936"/>
<path d="M261.972 7.48716H264.433V10.0092H261.972V7.48716Z" fill="#7A5936"/>
<path d="M266.806 7.48716H269.179V10.0092H266.806V7.48716Z" fill="#7A5936"/>
<path d="M271.552 7.48716H273.924V10.0092H271.552V7.48716Z" fill="#7A5936"/>
<path d="M276.295 7.48716H278.668V10.0092H276.295V7.48716Z" fill="#7A5936"/>
<path d="M281.041 7.48716H283.414V10.0092H281.041V7.48716Z" fill="#7A5936"/>
<path d="M285.787 7.48716H288.248V10.0092H285.787V7.48716Z" fill="#7A5936"/>
<path d="M290.62 7.48716H292.993V10.0092H290.62V7.48716Z" fill="#7A5936"/>
<path d="M295.366 7.48716H297.739V10.0092H295.366V7.48716Z" fill="#7A5936"/>
<path d="M300.11 7.48716H302.483V10.0092H300.11V7.48716Z" fill="#7A5936"/>
<path d="M304.856 7.48716H307.229V10.0092H304.856V7.48716Z" fill="#7A5936"/>
<path d="M309.602 7.48716H312.062V10.0092H309.602V7.48716Z" fill="#7A5936"/>
<path d="M314.435 7.48716H316.808V10.0092H314.435V7.48716Z" fill="#7A5936"/>
<path d="M319.181 7.48716H321.554V10.0092H319.181V7.48716Z" fill="#7A5936"/>
<path d="M323.925 7.48716H326.297V10.0092H323.925V7.48716Z" fill="#7A5936"/>
<path d="M328.67 7.48716H331.043V10.0092H328.67V7.48716Z" fill="#7A5936"/>
<path d="M333.416 7.48716H335.877V10.0092H333.416V7.48716Z" fill="#7A5936"/>
<path d="M338.25 7.48716H340.623V10.0092H338.25V7.48716Z" fill="#7A5936"/>
<path d="M342.996 7.48716H345.368V10.0092H342.996V7.48716Z" fill="#7A5936"/>
<path d="M347.742 7.48716H350.114V10.0092H347.742V7.48716Z" fill="#7A5936"/>
<path d="M352.487 7.48716H354.86V10.0092H352.487V7.48716Z" fill="#7A5936"/>
<path d="M357.233 7.48716H359.694V10.0092H357.233V7.48716Z" fill="#7A5936"/>
<path d="M362.067 7.48716H364.439V10.0092H362.067V7.48716Z" fill="#7A5936"/>
<path d="M366.813 7.48716H369.185V10.0092H366.813V7.48716Z" fill="#7A5936"/>
<path d="M371.556 7.48716H373.929V10.0092H371.556V7.48716Z" fill="#7A5936"/>
<path d="M376.302 7.48716H378.675V10.0092H376.302V7.48716Z" fill="#7A5936"/>
<path d="M381.048 7.48716H383.509V10.0092H381.048V7.48716Z" fill="#7A5936"/>
<path d="M385.881 7.48716H388.254V10.0092H385.881V7.48716Z" fill="#7A5936"/>
<path d="M390.627 7.48716H393V10.0092H390.627V7.48716Z" fill="#7A5936"/>
</svg>
